<svg width="19" height="23" viewBox="0 0 19 23" fill="none" xmlns="http://www.w3.org/2000/svg">
<path fill-rule="evenodd" clip-rule="evenodd" d="M10.5767 1.3125C10.5767 0.71803 10.0947 0.236115 9.50027 0.236115C8.9058 0.236115 8.42388 0.71803 8.42388 1.3125V1.92698C4.77264 2.44909 1.96555 5.58817 1.96555 9.38424L1.96555 13.6902C1.96555 13.6902 1.96556 13.6901 1.96555 13.6902C1.96544 13.6923 1.96471 13.7067 1.96004 13.735C1.95444 13.7689 1.94449 13.815 1.92807 13.8743C1.89478 13.9945 1.8418 14.1442 1.76778 14.3212C1.61939 14.676 1.41018 15.0845 1.1788 15.4967C0.743785 16.2716 0.524509 17.1951 0.68913 18.0732C0.862734 18.9993 1.45883 19.8069 2.4769 20.1945C3.38635 20.5408 4.59692 20.8575 6.19561 21.046C6.23365 21.0789 6.27863 21.1167 6.3303 21.158C6.49207 21.2874 6.72318 21.4552 7.01528 21.6221C7.59498 21.9533 8.4521 22.3021 9.50027 22.3021C10.5484 22.3021 11.4056 21.9533 11.9853 21.6221C12.2774 21.4552 12.5085 21.2874 12.6702 21.158C12.7219 21.1167 12.7669 21.0789 12.8049 21.046C14.4036 20.8575 15.6142 20.5408 16.5236 20.1945C17.5417 19.8069 18.1378 18.9993 18.3114 18.0732C18.476 17.1951 18.2568 16.2716 17.8217 15.4967C17.5904 15.0845 17.3811 14.676 17.2328 14.3212C17.1587 14.1442 17.1058 13.9945 17.0725 13.8743C17.056 13.815 17.0461 13.7689 17.0405 13.735C17.0358 13.7067 17.0351 13.6925 17.035 13.6905C17.035 13.6903 17.035 13.6905 17.035 13.6905L17.035 13.6814V9.38476C17.035 5.58878 14.228 2.44918 10.5767 1.92699V1.3125ZM4.11832 9.38424C4.11832 6.41213 6.52765 4.00348 9.50027 4.00348C12.4728 4.00348 14.8822 6.41253 14.8822 9.38476V13.691C14.8822 14.1893 15.0689 14.7267 15.2467 15.1518C15.4398 15.6135 15.6928 16.1021 15.9445 16.5505C16.1893 16.9865 16.2476 17.3985 16.1955 17.6766C16.1523 17.9067 16.0373 18.0762 15.7576 18.1827C14.6006 18.6232 12.6476 19.0729 9.50027 19.0729C6.35299 19.0729 4.39991 18.6232 3.24295 18.1827C2.96324 18.0762 2.8482 17.9067 2.80505 17.6766C2.75292 17.3985 2.81128 16.9865 3.05603 16.5505C3.30773 16.1021 3.56079 15.6135 3.75388 15.1518C3.93162 14.7267 4.11832 14.1893 4.11832 13.691V9.38424Z" fill="#667185"/>
</svg>
