<svg width="18" height="12" viewBox="0 0 18 12" fill="none" xmlns="http://www.w3.org/2000/svg">
<path d="M9.83334 6C9.83334 5.53977 9.46024 5.16667 9.00001 5.16667C8.53977 5.16667 8.16667 5.53977 8.16667 6C8.16667 6.46024 8.53977 6.83334 9.00001 6.83334C9.46024 6.83334 9.83334 6.46024 9.83334 6Z" fill="#667185"/>
<path fill-rule="evenodd" clip-rule="evenodd" d="M3.16667 0.166672H14.8333C16.2141 0.166672 17.3333 1.28596 17.3333 2.66667V9.33334C17.3333 10.714 16.2141 11.8333 14.8333 11.8333H3.16667C1.78596 11.8333 0.666672 10.714 0.666672 9.33334V2.66667C0.666672 1.28596 1.78596 0.166672 3.16667 0.166672ZM3.16667 1.41667C2.70643 1.41667 2.33334 1.78977 2.33334 2.25001C2.33334 2.71024 2.70643 3.08334 3.16667 3.08334H4.83334C5.29358 3.08334 5.66667 2.71024 5.66667 2.25001C5.66667 1.78977 5.29358 1.41667 4.83334 1.41667H3.16667ZM12.3333 2.25001C12.3333 1.78977 12.7064 1.41667 13.1667 1.41667H14.8333C15.2936 1.41667 15.6667 1.78977 15.6667 2.25001C15.6667 2.71024 15.2936 3.08334 14.8333 3.08334H13.1667C12.7064 3.08334 12.3333 2.71024 12.3333 2.25001ZM3.16667 8.91667C2.70643 8.91667 2.33334 9.28977 2.33334 9.75C2.33334 10.2102 2.70643 10.5833 3.16667 10.5833H4.83334C5.29358 10.5833 5.66667 10.2102 5.66667 9.75C5.66667 9.28977 5.29358 8.91667 4.83334 8.91667H3.16667ZM12.3333 9.75C12.3333 9.28977 12.7064 8.91667 13.1667 8.91667H14.8333C15.2936 8.91667 15.6667 9.28977 15.6667 9.75C15.6667 10.2102 15.2936 10.5833 14.8333 10.5833H13.1667C12.7064 10.5833 12.3333 10.2102 12.3333 9.75ZM9.00001 3.50001C10.3807 3.50001 11.5 4.61929 11.5 6C11.5 7.38072 10.3807 8.5 9.00001 8.5C7.61929 8.5 6.50001 7.38072 6.50001 6C6.50001 4.61929 7.61929 3.50001 9.00001 3.50001Z" fill="#667185"/>
</svg>
