<svg width="18" height="16" viewBox="0 0 18 16" fill="none" xmlns="http://www.w3.org/2000/svg">
<path d="M6.11173 0.93766C7.1259 0.618505 8.02816 0.357032 8.54419 0.210721C8.84439 0.125607 9.1537 0.129474 9.45188 0.221381C10.8345 0.647532 15.0106 1.96678 16.6561 2.84809L13.7451 4.07374L6.11173 0.93766Z" fill="#667185"/>
<path d="M4.28809 1.53982C3.0758 1.96252 1.92611 2.41758 1.25908 2.81697C1.28138 2.82354 1.30353 2.83143 1.32546 2.84066L8.99957 6.07178L12.1206 4.75772L4.28809 1.53982Z" fill="#667185"/>
<path d="M0.577077 3.78391C0.380902 5.16612 0.532543 9.49185 0.618063 11.5173C0.645536 12.168 1.05385 12.7384 1.65853 12.9803L8.38064 15.6691C8.38705 15.6717 8.39348 15.6742 8.39992 15.6767C8.38343 15.6206 8.37457 15.5613 8.37457 15.4999V7.16491L0.840401 3.99271C0.731187 3.94673 0.641868 3.87334 0.577077 3.78391Z" fill="#667185"/>
<path d="M9.59922 15.6767C9.60569 15.6742 9.61216 15.6717 9.61861 15.6691L16.3407 12.9802C16.9454 12.7384 17.3537 12.168 17.3812 11.5173C17.4667 9.49184 17.6184 5.16595 17.4222 3.78382C17.3574 3.87329 17.268 3.94671 17.1588 3.99271L9.62457 7.16491V15.4999C9.62457 15.5613 9.61572 15.6207 9.59922 15.6767Z" fill="#667185"/>
</svg>
