<svg width="18" height="18" viewBox="0 0 18 18" fill="none" xmlns="http://www.w3.org/2000/svg">
<path fill-rule="evenodd" clip-rule="evenodd" d="M11.8065 0.747656C10.7993 -0.226758 9.20073 -0.226758 8.19348 0.747656C7.61749 1.30487 6.8166 1.5651 6.02309 1.45286C4.63546 1.25659 3.34222 2.19618 3.10009 3.57654C2.96162 4.3659 2.46664 5.04718 1.75871 5.42279C0.520732 6.07963 0.026758 7.59993 0.642223 8.85899C0.994173 9.57897 0.994173 10.4211 0.642223 11.1411C0.0267579 12.4001 0.520732 13.9204 1.75871 14.5773C2.46664 14.9529 2.96162 15.6342 3.10009 16.4235C3.34222 17.8039 4.63546 18.7435 6.02309 18.5472C6.8166 18.435 7.61749 18.6952 8.19348 19.2524C9.20073 20.2268 10.7993 20.2268 11.8065 19.2524C12.3825 18.6952 13.1834 18.435 13.9769 18.5472C15.3645 18.7435 16.6578 17.8039 16.8999 16.4235C17.0384 15.6342 17.5334 14.9529 18.2413 14.5773C19.4793 13.9204 19.9732 12.4001 19.3578 11.1411C19.0058 10.4211 19.0058 9.57897 19.3578 8.85899C19.9732 7.59993 19.4793 6.07963 18.2413 5.42279C17.5334 5.04718 17.0384 4.3659 16.8999 3.57654C16.6578 2.19618 15.3645 1.25659 13.9769 1.45286C13.1834 1.5651 12.3825 1.30487 11.8065 0.747656ZM10 15C12.7614 15 15 12.7615 15 10C15 7.23861 12.7614 5.00003 10 5.00003C7.23857 5.00003 5 7.23861 5 10C5 12.7615 7.23857 15 10 15Z" fill="#667185"/>
</svg>
