<svg width="16" height="16" viewBox="0 0 16 16" fill="none" xmlns="http://www.w3.org/2000/svg">
<path fill-rule="evenodd" clip-rule="evenodd" d="M15.5 8C15.5 12.1421 12.1421 15.5 8 15.5C3.85786 15.5 0.5 12.1421 0.5 8C0.5 3.85786 3.85786 0.5 8 0.5C12.1421 0.5 15.5 3.85786 15.5 8ZM8.11676 6.45409C8.35198 6.27768 8.4084 5.94825 8.24531 5.70362C8.0514 5.41275 7.63985 5.37199 7.39265 5.61919L6.92259 6.08926C6.59715 6.41469 6.06951 6.41469 5.74408 6.08926C5.41864 5.76382 5.41864 5.23618 5.74408 4.91074L6.21414 4.44068C7.20503 3.44979 8.85475 3.61314 9.63206 4.77912C10.2858 5.75975 10.0596 7.08028 9.11676 7.78743L9.07631 7.81777C8.92335 7.93249 8.83333 8.11252 8.83333 8.30372L8.83333 8.41667C8.83333 8.8769 8.46024 9.25 8 9.25C7.53976 9.25 7.16666 8.8769 7.16667 8.41667V8.30372C7.16667 7.58793 7.50367 6.91391 8.07631 6.48444L8.11676 6.45409ZM7.16667 10.9167C7.16667 11.3769 7.53976 11.75 8 11.75C8.46024 11.75 8.83333 11.3769 8.83333 10.9167C8.83333 10.4564 8.46024 10.0833 8 10.0833C7.53976 10.0833 7.16667 10.4564 7.16667 10.9167Z" fill="#667185"/>
</svg>
