<svg width="27" height="25" viewBox="0 0 27 25" fill="none" xmlns="http://www.w3.org/2000/svg">
<path d="M6.50008 9.08337C6.50008 5.53955 9.37292 2.66671 12.9167 2.66671C16.0559 2.66671 18.6708 4.92209 19.2249 7.90116C19.3027 8.31892 19.6014 8.66139 20.0047 8.79515C22.3272 9.56544 24.0001 11.7556 24.0001 14.3334C24.0001 17.555 21.3884 20.1667 18.1667 20.1667C17.5224 20.1667 17.0001 20.689 17.0001 21.3334C17.0001 21.9777 17.5224 22.5 18.1667 22.5C22.6771 22.5 26.3334 18.8437 26.3334 14.3334C26.3334 10.9588 24.2874 8.06484 21.3708 6.81955C20.3727 3.08438 16.9671 0.333374 12.9167 0.333374C8.08426 0.333374 4.16675 4.25088 4.16675 9.08337C4.16675 9.20037 4.16905 9.31687 4.17362 9.43285C2.07897 10.6413 0.666748 12.9047 0.666748 15.5C0.666748 19.366 3.80076 22.5 7.66675 22.5C8.31108 22.5 8.83342 21.9777 8.83342 21.3334C8.83342 20.689 8.31108 20.1667 7.66675 20.1667C5.08942 20.1667 3.00008 18.0774 3.00008 15.5C3.00008 13.5665 4.17629 11.9049 5.85684 11.197C6.34315 10.9921 6.6314 10.4864 6.55981 9.96355C6.52048 9.67634 6.50008 9.38256 6.50008 9.08337Z" fill="#475367"/>
<path d="M12.725 14.6281C13.167 14.2351 13.8331 14.2351 14.2752 14.6281L16.0252 16.1836C16.5068 16.6117 16.5501 17.3491 16.1221 17.8307C15.7476 18.252 15.1363 18.3379 14.6667 18.0662V23.6667C14.6667 24.311 14.1444 24.8334 13.5001 24.8334C12.8557 24.8334 12.3334 24.311 12.3334 23.6667V18.0662C11.8638 18.3379 11.2526 18.252 10.8781 17.8307C10.45 17.3491 10.4934 16.6117 10.975 16.1836L12.725 14.6281Z" fill="#475367"/>
</svg>
